# xmcd CD database file
# Copyright (C) 1993-1998 Ti Kan
#
# Track frame offsets:
#	150
#	12752
#	32292
#	48382
#	64622
#	80899
#	97289
#	111954
#	125606
#	139896
#	152161
#	162813
#	179053
#	191993
#	204820
#	228522
#	243937
#	254214
#	264979
#
# Disc length: 3749 seconds
#
# Revision: 1
# Processed by: cddbd v1.4b41PL1 Copyright (c) Steve Scherf et al.
# Submitted via: CDValet v3.31 - Copyright (c) 1997 Greg Leichner
#
DISCID=120ea313
DTITLE=Various Artist - Country Stampede
DYEAR=1900
DGENRE=
TTITLE0=All For The Love Of A Girl/Johhny Horton
TTITLE1=Between The Devil And Me/Tracy Lawrence
TTITLE2=Boardwalk Angel/Billy Joe Royal
TTITLE3=Broken Wing/Martina McBride
TTITLE4=Carrying Your Love With Me/George Strait
TTITLE5=Don't Be Stupid/Shania Twain
TTITLE6=Don't Worry/Marty Robbins
TTITLE7=Drink Swear Steal and Lie/Michael Peterson
TTITLE8=Eagle When She Flies/Dolly Parton
TTITLE9=Forever is as Far As I Could Go/Donna Fargo
TTITLE10=From A Jack To A King/Ricky Van Shelton
TTITLE11=From Here To Eternity/Michael Peterson
TTITLE12=Funny How Time Slips Away/Jimmy Elledge
TTITLE13=Go Away/Lorrie Morgan
TTITLE14=Go Rest High On That Mountain/Vince Gill
TTITLE15=Good As I Was To you/Lorrie Morgan
TTITLE16=He Can Have All He Wants Of Her/Donna Fargo
TTITLE17=Hello Walls/Ferlin Young
TTITLE18=Here In The Real World/Alan Jackson
EXTD=
EXTT0=
EXTT1=
EXTT2=
EXTT3=
EXTT4=
EXTT5=
EXTT6=
EXTT7=
EXTT8=
EXTT9=
EXTT10=
EXTT11=
EXTT12=
EXTT13=
EXTT14=
EXTT15=
EXTT16=
EXTT17=
EXTT18=
PLAYORDER=
